<?xml version="1.0" encoding="UTF-8" standalone="no"?>
<svg
   version="1.1"
   width="193"
   height="33"
   id="svg7"
   sodipodi:docname="Logo-SVG.svg"
   inkscape:version="1.3.2 (091e20e, 2023-11-25, custom)"
   inkscape:export-filename="Logo-SVG.svg"
   inkscape:export-xdpi="96"
   inkscape:export-ydpi="96"
   xmlns:inkscape="http://www.inkscape.org/namespaces/inkscape"
   xmlns:sodipodi="http://sodipodi.sourceforge.net/DTD/sodipodi-0.dtd"
   xmlns="http://www.w3.org/2000/svg"
   xmlns:svg="http://www.w3.org/2000/svg">
  <defs
     id="defs7" />
  <sodipodi:namedview
     id="namedview7"
     pagecolor="#505050"
     bordercolor="#eeeeee"
     borderopacity="1"
     inkscape:showpageshadow="0"
     inkscape:pageopacity="0"
     inkscape:pagecheckerboard="0"
     inkscape:deskcolor="#505050"
     inkscape:zoom="6.2072539"
     inkscape:cx="96.5"
     inkscape:cy="16.512938"
     inkscape:window-width="1920"
     inkscape:window-height="974"
     inkscape:window-x="-11"
     inkscape:window-y="-11"
     inkscape:window-maximized="1"
     inkscape:current-layer="svg7" />
  <path
     d="M0 0 C9.9 0 19.8 0 30 0 C28.56151153 4.31546541 27.38873681 7.37260251 25.1796875 11.1796875 C24.64472656 12.1078125 24.10976563 13.0359375 23.55859375 13.9921875 C23.00300781 14.94351562 22.44742187 15.89484375 21.875 16.875 C21.31167969 17.84953125 20.74835937 18.8240625 20.16796875 19.828125 C18.78349637 22.22161962 17.39406459 24.6120838 16 27 C15.34 27 14.68 27 14 27 C9.93846154 20.6 9.93846154 20.6 10.25 17.5625 C10.4975 17.046875 10.745 16.53125 11 16 C12.65 16.33 14.3 16.66 16 17 C16.2475 16.319375 16.495 15.63875 16.75 14.9375 C18.24197908 11.43134917 20.06835511 8.28379632 22 5 C17.38 5 12.76 5 8 5 C8.33 5.99 8.66 6.98 9 8 C7.02 8.99 7.02 8.99 5 10 C4.16121545 8.71186658 3.32913217 7.41936744 2.5 6.125 C2.0359375 5.40570312 1.571875 4.68640625 1.09375 3.9453125 C0 2 0 2 0 0 Z "
     fill="#02B57D"
     transform="translate(0,3)"
     id="path1"
     style="fill:#ffffff" />
  <path
     d="M0 0 C5 1 5 1 6.36328125 2.84765625 C6.67652344 3.57855469 6.98976563 4.30945313 7.3125 5.0625 C7.63863281 5.79597656 7.96476562 6.52945312 8.30078125 7.28515625 C8.53152344 7.85105469 8.76226562 8.41695312 9 9 C10.70774325 6.8043301 12.16422564 4.69891966 13.5 2.25 C13.995 1.5075 14.49 0.765 15 0 C15.99 0 16.98 0 18 0 C18 5.94 18 11.88 18 18 C16.68 18 15.36 18 14 18 C13.67 16.68 13.34 15.36 13 14 C12.34 15.32 11.68 16.64 11 18 C9.125 17.75 9.125 17.75 7 17 C5.75 14.9375 5.75 14.9375 5 13 C4.67 14.65 4.34 16.3 4 18 C2.68 18 1.36 18 0 18 C0 12.06 0 6.12 0 0 Z "
     fill="#01C78A"
     transform="translate(39,8)"
     id="path2"
     style="fill:#ffffff" />
  <path
     d="M0 0 C2.9375 2.5 2.9375 2.5 5 5 C4.67 5.66 4.34 6.32 4 7 C2.68 7 1.36 7 0 7 C-0.33 6.34 -0.66 5.68 -1 5 C-2.66611905 4.957279 -4.33382885 4.95936168 -6 5 C-7.20561184 5.98267859 -7.20561184 5.98267859 -7.09765625 7.84765625 C-7.08605469 8.57855469 -7.07445313 9.30945313 -7.0625 10.0625 C-7.041875 11.361875 -7.02125 12.66125 -7 14 C-4.58354218 14.16687448 -4.58354218 14.16687448 -2 14 C-1.34 13.34 -0.68 12.68 0 12 C1.32 12 2.64 12 4 12 C3.52204176 16.54060325 3.52204176 16.54060325 1.4375 18.375 C-2.204435 19.30882949 -5.39382714 19.02596001 -9 18 C-11.43000226 16.17749831 -11.8580314 14.86310458 -12.34375 11.91015625 C-12.62774994 7.64305708 -12.37364761 5.55481008 -9.9375 1.9375 C-6.21772362 -0.51596953 -4.3766411 -0.78154305 0 0 Z "
     fill="#02B27C"
     transform="translate(101,8)"
     id="path3"
     style="fill:#ffffff" />
  <path
     d="M0 0 C1.32 0 2.64 0 4 0 C4 5.94 4 11.88 4 18 C-4.22787194 19.4519774 -4.22787194 19.4519774 -7.5625 17.5 C-9.53594974 14.0679135 -9.55680425 11.89762975 -9 8 C-7.25 5.5625 -7.25 5.5625 -5 4 C-3.68 4 -2.36 4 -1 4 C-0.67 2.68 -0.34 1.36 0 0 Z M-4 8 C-5.00217064 11.58327753 -5.00217064 11.58327753 -4 15 C-2.68 14.67 -1.36 14.34 0 14 C0 12.35 0 10.7 0 9 C-1.32 8.67 -2.64 8.34 -4 8 Z "
     fill="#02B880"
     transform="translate(83,8)"
     id="path4"
     style="fill:#ffffff" />
  <path
     d="M0 0 C1.9375 1.5625 1.9375 1.5625 3 4 C3.08663674 6.91677037 2.65737844 9.08875263 2 12 C-1 14 -1 14 -4.5 13.875 C-8 13 -8 13 -10 11.375 C-11.46981805 7.88418213 -10.98413921 5.60851044 -10 2 C-6.95062482 -1.61407429 -4.34375767 -1.38630564 0 0 Z M-5 3 C-5.33 3.66 -5.66 4.32 -6 5 C-4.68 5 -3.36 5 -2 5 C-2 4.34 -2 3.68 -2 3 C-2.99 3 -3.98 3 -5 3 Z M-6 8 C-5.67 8.66 -5.34 9.32 -5 10 C-4.01 9.67 -3.02 9.34 -2 9 C-3.32 8.67 -4.64 8.34 -6 8 Z "
     fill="#01BF84"
     transform="translate(70,13)"
     id="path5"
     style="fill:#ffffff" />
  <path
     d="M0 0 C1 1 1 1 1.09765625 3.72265625 C1.08605469 4.82480469 1.07445313 5.92695313 1.0625 7.0625 C1.05347656 8.16722656 1.04445313 9.27195312 1.03515625 10.41015625 C1.02355469 11.26480469 1.01195313 12.11945312 1 13 C-0.62324086 13.22162329 -2.248721 13.42689803 -3.875 13.625 C-4.77992187 13.74101562 -5.68484375 13.85703125 -6.6171875 13.9765625 C-7.40351562 13.98429687 -8.18984375 13.99203125 -9 14 C-11 12 -11 12 -11.25 9.5 C-11 7 -11 7 -9 5 C-9.66 4.67 -10.32 4.34 -11 4 C-8.37880967 -1.8040643 -6.03014099 -1.09638927 0 0 Z M-6 8 C-6.33 8.66 -6.66 9.32 -7 10 C-5.68 9.67 -4.36 9.34 -3 9 C-3.99 8.67 -4.98 8.34 -6 8 Z "
     fill="#03AA76"
     transform="translate(118,13)"
     id="path6"
     style="fill:#ffffff" />
  <path
     d="M0 0 C1.32 0 2.64 0 4 0 C4 5.94 4 11.88 4 18 C2.68 18 1.36 18 0 18 C0 12.06 0 6.12 0 0 Z "
     fill="#03A674"
     transform="translate(122,8)"
     id="path7"
     style="fill:#ffffff" />
</svg>
